<?xml version="1.0" encoding="UTF-8"?> <svg xmlns="http://www.w3.org/2000/svg" width="157" height="36" viewBox="0 0 157 36" fill="none"><path d="M128.23 10.3626L125.378 17.0906L122.518 10.3626H117.655V25.4227H121.209L121.208 15.9308L125.385 25.0235L129.587 15.9217L129.59 25.4227H133.124V10.3626H128.23Z" fill="#44A2DA"></path><path d="M143.392 19.2088C144.285 18.9034 144.984 18.3937 145.488 17.6799C145.993 16.966 146.245 16.0841 146.245 15.0344C146.245 14.1465 146.097 13.4038 145.799 12.8061C145.522 12.2342 145.113 11.739 144.605 11.3631C144.098 10.9949 143.524 10.7313 142.917 10.5875C142.284 10.4342 141.636 10.3573 140.986 10.3584H135.033V25.4216H138.582V19.6899H139.911L142.701 25.4216H146.789L143.392 19.2088ZM138.578 16.9806V13.3731H140.537C140.796 13.3739 141.054 13.3958 141.309 13.4386C141.563 13.4776 141.807 13.5628 142.03 13.69C142.247 13.8163 142.429 13.9968 142.557 14.2142C142.693 14.4399 142.762 14.7347 142.762 15.0987C142.762 15.4919 142.687 15.8126 142.537 16.0607C142.398 16.2982 142.2 16.4942 141.962 16.6289C141.719 16.7631 141.455 16.8554 141.182 16.9018C140.905 16.952 140.624 16.9776 140.343 16.9782L138.578 16.9806Z" fill="#44A2DA"></path><path d="M149.101 10.567V25.4324L156.44 17.9997L149.101 10.567Z" fill="#44A2DA"></path><path d="M149.093 28.4212V30.5941C149.093 32.045 148.306 32.8422 146.874 32.8422H116.833C115.401 32.8422 114.614 32.045 114.614 30.5941V5.33732C114.614 3.8865 115.109 3.08984 116.901 3.08984H146.692C148.613 3.08984 149.095 3.8865 149.095 5.33732V7.56195L152.301 10.8087V4.67474C152.297 3.43635 151.81 2.24979 150.945 1.374C150.081 0.498209 148.909 0.00428042 147.686 0L116.006 0C114.784 0.00396355 113.612 0.497752 112.747 1.37358C111.882 2.2494 111.395 3.43614 111.391 4.67474V31.3253C111.395 32.5639 111.882 33.7506 112.747 34.6264C113.612 35.5022 114.784 35.996 116.006 36H147.686C148.909 35.996 150.081 35.5022 150.946 34.6264C151.811 33.7506 152.298 32.5639 152.302 31.3253V25.1714L149.093 28.4212Z" fill="black"></path><path d="M2.25593 4.34164C3.56199 4.34164 4.57123 5.27238 4.57123 6.50615C4.57123 7.73992 3.56199 8.67066 2.2589 8.67066C0.955802 8.67066 0 7.64433 0 6.50315C0 5.36197 0.949865 4.34164 2.25593 4.34164ZM0.504022 11.0113H4.06127V25.4228H0.504022V11.0113Z" fill="black"></path><path d="M7.82629 11.0113H11.206V13.3231H11.2654C11.9184 11.8801 13.2512 10.6506 15.6229 10.6506C19.4473 10.6506 20.811 13.3827 20.811 16.3252V25.4227H17.2537V18.1265C17.2537 16.5356 17.135 13.8931 14.6451 13.8931C12.3025 13.8931 11.3835 15.6368 11.3835 17.5566V25.4227H7.82629V11.0113Z" fill="black"></path><path d="M23.9064 11.0113H27.2861V13.3231H27.3455C27.9985 11.8801 29.3319 10.6506 31.7036 10.6506C35.528 10.6506 36.8916 13.3827 36.8916 16.3252V25.4227H33.3338V18.1265C33.3338 16.5356 33.2151 13.8931 30.7217 13.8931C28.3796 13.8931 27.4612 15.6368 27.4612 17.5566V25.4227H23.9064V11.0113Z" fill="black"></path><path d="M46.6313 10.6506C50.93 10.6506 54.3685 13.6833 54.3685 18.2167C54.3685 22.7502 50.93 25.7829 46.6313 25.7829C42.3326 25.7829 38.894 22.7508 38.894 18.2179C38.894 13.6851 42.3326 10.6506 46.6313 10.6506ZM46.6313 22.5403C49.2399 22.5403 50.8113 20.4684 50.8113 18.2167C50.8113 15.965 49.2399 13.8931 46.6313 13.8931C44.0227 13.8931 42.4513 15.965 42.4513 18.2179C42.4513 20.4708 44.0221 22.5403 46.6313 22.5403Z" fill="black"></path><path d="M54.3204 11.0113H58.203L61.765 21.0991H61.8244L65.4161 11.0113H69.0629L63.6926 25.4227H59.9009L54.3204 11.0113Z" fill="black"></path><path d="M78.91 23.4411H78.8216C77.8123 25.0644 76.1501 25.7829 74.2557 25.7829C71.6174 25.7829 69.0676 24.3117 69.0676 21.4599C69.0676 16.7756 74.4635 16.4455 78.0207 16.4455H78.9112V16.0535C78.9112 14.2822 77.5458 13.3514 75.6508 13.3514C74.2443 13.3516 72.8895 13.8883 71.8561 14.8546L69.9878 12.9636C71.5592 11.3403 73.7825 10.6512 76.0355 10.6512C82.1128 10.6512 82.1128 15.0951 82.1128 17.1369V25.4228H78.91V23.4411ZM78.7022 18.9677H77.9613C76.0022 18.9677 72.6255 19.1175 72.6255 21.1894C72.6255 22.5121 73.9594 23.0809 75.1153 23.0809C77.5493 23.0809 78.7022 21.79 78.7022 19.7782V18.9677Z" fill="black"></path><path d="M83.2557 14.0735V11.0114H85.9581V7.74356L89.5159 6.38473V11.0114H93.4288V14.0735H89.5159V20.3789C89.5159 21.8219 89.9315 22.7208 91.5018 22.7208C92.1245 22.7208 92.9859 22.6005 93.4288 22.2704V25.3025C92.6879 25.6633 91.443 25.7835 90.6124 25.7835C86.848 25.7835 85.9581 24.0718 85.9581 20.6795V14.0735H83.2557Z" fill="black"></path><path d="M108.594 18.4873C108.594 13.4728 105.896 10.6506 101.924 10.6506C97.6248 10.6506 94.1863 13.6833 94.1863 18.2167C94.1863 22.7502 97.6248 25.7829 101.924 25.7829C104.179 25.7829 106.282 24.9724 107.942 22.9005L105.392 20.9488C104.502 22.0599 103.347 22.9005 101.568 22.9005C99.6836 22.9005 98.1478 21.7371 97.7928 19.7968C97.7673 19.6453 97.721 19.3302 97.7103 19.2497L97.6877 19.0693H108.594V18.4873ZM101.42 13.3532C103.548 13.3532 104.885 14.5659 105.022 16.5128H97.7869C98.1276 14.5918 99.4058 13.3532 101.42 13.3532Z" fill="black"></path></svg> 