<?xml version="1.0" standalone="no"?>
<svg xmlns:xlink="http://www.w3.org/1999/xlink" id="wave" style="transform:rotate(180deg); transition: 0.3s" viewBox="0 0 1440 300" version="1.1" xmlns="http://www.w3.org/2000/svg"><defs><linearGradient id="sw-gradient-0" x1="0" x2="0" y1="1" y2="0"><stop stop-color="rgba(0, 255, 178, 1)" offset="0%"/><stop stop-color="rgba(0, 121, 107, 1)" offset="100%"/></linearGradient></defs><path style="transform:translate(0, 0px); opacity:1" fill="url(#sw-gradient-0)" d="M0,90L24,95C48,100,96,110,144,115C192,120,240,120,288,105C336,90,384,60,432,70C480,80,528,130,576,170C624,210,672,240,720,250C768,260,816,250,864,230C912,210,960,180,1008,140C1056,100,1104,50,1152,40C1200,30,1248,60,1296,85C1344,110,1392,130,1440,135C1488,140,1536,130,1584,140C1632,150,1680,180,1728,205C1776,230,1824,250,1872,240C1920,230,1968,190,2016,185C2064,180,2112,210,2160,230C2208,250,2256,260,2304,245C2352,230,2400,190,2448,155C2496,120,2544,90,2592,95C2640,100,2688,140,2736,140C2784,140,2832,100,2880,85C2928,70,2976,80,3024,70C3072,60,3120,30,3168,15C3216,0,3264,0,3312,20C3360,40,3408,80,3432,100L3456,120L3456,300L3432,300C3408,300,3360,300,3312,300C3264,300,3216,300,3168,300C3120,300,3072,300,3024,300C2976,300,2928,300,2880,300C2832,300,2784,300,2736,300C2688,300,2640,300,2592,300C2544,300,2496,300,2448,300C2400,300,2352,300,2304,300C2256,300,2208,300,2160,300C2112,300,2064,300,2016,300C1968,300,1920,300,1872,300C1824,300,1776,300,1728,300C1680,300,1632,300,1584,300C1536,300,1488,300,1440,300C1392,300,1344,300,1296,300C1248,300,1200,300,1152,300C1104,300,1056,300,1008,300C960,300,912,300,864,300C816,300,768,300,720,300C672,300,624,300,576,300C528,300,480,300,432,300C384,300,336,300,288,300C240,300,192,300,144,300C96,300,48,300,24,300L0,300Z"/><defs><linearGradient id="sw-gradient-1" x1="0" x2="0" y1="1" y2="0"><stop stop-color="rgba(0, 255, 178, 1)" offset="0%"/><stop stop-color="rgba(0, 121, 107, 1)" offset="100%"/></linearGradient></defs><path style="transform:translate(0, 50px); opacity:0.9" fill="url(#sw-gradient-1)" d="M0,270L24,250C48,230,96,190,144,180C192,170,240,190,288,180C336,170,384,130,432,135C480,140,528,190,576,210C624,230,672,220,720,205C768,190,816,170,864,175C912,180,960,210,1008,185C1056,160,1104,80,1152,45C1200,10,1248,20,1296,65C1344,110,1392,190,1440,225C1488,260,1536,250,1584,205C1632,160,1680,80,1728,55C1776,30,1824,60,1872,95C1920,130,1968,170,2016,165C2064,160,2112,110,2160,105C2208,100,2256,140,2304,160C2352,180,2400,180,2448,180C2496,180,2544,180,2592,160C2640,140,2688,100,2736,90C2784,80,2832,100,2880,95C2928,90,2976,60,3024,50C3072,40,3120,50,3168,80C3216,110,3264,160,3312,155C3360,150,3408,90,3432,60L3456,30L3456,300L3432,300C3408,300,3360,300,3312,300C3264,300,3216,300,3168,300C3120,300,3072,300,3024,300C2976,300,2928,300,2880,300C2832,300,2784,300,2736,300C2688,300,2640,300,2592,300C2544,300,2496,300,2448,300C2400,300,2352,300,2304,300C2256,300,2208,300,2160,300C2112,300,2064,300,2016,300C1968,300,1920,300,1872,300C1824,300,1776,300,1728,300C1680,300,1632,300,1584,300C1536,300,1488,300,1440,300C1392,300,1344,300,1296,300C1248,300,1200,300,1152,300C1104,300,1056,300,1008,300C960,300,912,300,864,300C816,300,768,300,720,300C672,300,624,300,576,300C528,300,480,300,432,300C384,300,336,300,288,300C240,300,192,300,144,300C96,300,48,300,24,300L0,300Z"/><defs><linearGradient id="sw-gradient-2" x1="0" x2="0" y1="1" y2="0"><stop stop-color="rgba(0, 255, 178, 1)" offset="0%"/><stop stop-color="rgba(0, 121, 107, 1)" offset="100%"/></linearGradient></defs><path style="transform:translate(0, 100px); opacity:0.8" fill="url(#sw-gradient-2)" d="M0,270L24,250C48,230,96,190,144,180C192,170,240,190,288,210C336,230,384,250,432,235C480,220,528,170,576,140C624,110,672,100,720,125C768,150,816,210,864,210C912,210,960,150,1008,105C1056,60,1104,30,1152,40C1200,50,1248,100,1296,145C1344,190,1392,230,1440,235C1488,240,1536,210,1584,185C1632,160,1680,140,1728,130C1776,120,1824,120,1872,140C1920,160,1968,200,2016,190C2064,180,2112,120,2160,115C2208,110,2256,160,2304,170C2352,180,2400,150,2448,155C2496,160,2544,200,2592,225C2640,250,2688,260,2736,250C2784,240,2832,210,2880,180C2928,150,2976,120,3024,110C3072,100,3120,110,3168,125C3216,140,3264,160,3312,150C3360,140,3408,100,3432,80L3456,60L3456,300L3432,300C3408,300,3360,300,3312,300C3264,300,3216,300,3168,300C3120,300,3072,300,3024,300C2976,300,2928,300,2880,300C2832,300,2784,300,2736,300C2688,300,2640,300,2592,300C2544,300,2496,300,2448,300C2400,300,2352,300,2304,300C2256,300,2208,300,2160,300C2112,300,2064,300,2016,300C1968,300,1920,300,1872,300C1824,300,1776,300,1728,300C1680,300,1632,300,1584,300C1536,300,1488,300,1440,300C1392,300,1344,300,1296,300C1248,300,1200,300,1152,300C1104,300,1056,300,1008,300C960,300,912,300,864,300C816,300,768,300,720,300C672,300,624,300,576,300C528,300,480,300,432,300C384,300,336,300,288,300C240,300,192,300,144,300C96,300,48,300,24,300L0,300Z"/><defs><linearGradient id="sw-gradient-3" x1="0" x2="0" y1="1" y2="0"><stop stop-color="rgba(0, 255, 178, 1)" offset="0%"/><stop stop-color="rgba(0, 121, 107, 1)" offset="100%"/></linearGradient></defs><path style="transform:translate(0, 150px); opacity:0.7" fill="url(#sw-gradient-3)" d="M0,270L24,255C48,240,96,210,144,190C192,170,240,160,288,170C336,180,384,210,432,200C480,190,528,140,576,100C624,60,672,30,720,45C768,60,816,120,864,140C912,160,960,140,1008,150C1056,160,1104,200,1152,195C1200,190,1248,140,1296,145C1344,150,1392,210,1440,240C1488,270,1536,270,1584,240C1632,210,1680,150,1728,140C1776,130,1824,170,1872,170C1920,170,1968,130,2016,95C2064,60,2112,30,2160,25C2208,20,2256,40,2304,75C2352,110,2400,160,2448,190C2496,220,2544,230,2592,195C2640,160,2688,80,2736,40C2784,0,2832,0,2880,5C2928,10,2976,20,3024,25C3072,30,3120,30,3168,35C3216,40,3264,50,3312,85C3360,120,3408,180,3432,210L3456,240L3456,300L3432,300C3408,300,3360,300,3312,300C3264,300,3216,300,3168,300C3120,300,3072,300,3024,300C2976,300,2928,300,2880,300C2832,300,2784,300,2736,300C2688,300,2640,300,2592,300C2544,300,2496,300,2448,300C2400,300,2352,300,2304,300C2256,300,2208,300,2160,300C2112,300,2064,300,2016,300C1968,300,1920,300,1872,300C1824,300,1776,300,1728,300C1680,300,1632,300,1584,300C1536,300,1488,300,1440,300C1392,300,1344,300,1296,300C1248,300,1200,300,1152,300C1104,300,1056,300,1008,300C960,300,912,300,864,300C816,300,768,300,720,300C672,300,624,300,576,300C528,300,480,300,432,300C384,300,336,300,288,300C240,300,192,300,144,300C96,300,48,300,24,300L0,300Z"/></svg>