<?xml version="1.0" standalone="no"?>
<svg xmlns:xlink="http://www.w3.org/1999/xlink" id="wave" style="transform:rotate(180deg); transition: 0.3s" viewBox="0 0 1440 260" version="1.1" xmlns="http://www.w3.org/2000/svg"><defs><linearGradient id="sw-gradient-0" x1="0" x2="0" y1="1" y2="0"><stop stop-color="rgba(45, 95, 137, 1)" offset="0%"/><stop stop-color="rgba(45, 95, 137, 1)" offset="100%"/></linearGradient></defs><path style="transform:translate(0, 0px); opacity:1" fill="url(#sw-gradient-0)" d="M0,52L17.1,69.3C34.3,87,69,121,103,117C137.1,113,171,69,206,65C240,61,274,95,309,104C342.9,113,377,95,411,104C445.7,113,480,147,514,173.3C548.6,199,583,217,617,212.3C651.4,208,686,182,720,156C754.3,130,789,104,823,117C857.1,130,891,182,926,173.3C960,165,994,95,1029,56.3C1062.9,17,1097,9,1131,21.7C1165.7,35,1200,69,1234,95.3C1268.6,121,1303,139,1337,121.3C1371.4,104,1406,52,1440,52C1474.3,52,1509,104,1543,112.7C1577.1,121,1611,87,1646,86.7C1680,87,1714,121,1749,117C1782.9,113,1817,69,1851,78C1885.7,87,1920,147,1954,156C1988.6,165,2023,121,2057,125.7C2091.4,130,2126,182,2160,177.7C2194.3,173,2229,113,2263,104C2297.1,95,2331,139,2366,138.7C2400,139,2434,95,2451,73.7L2468.6,52L2468.6,260L2451.4,260C2434.3,260,2400,260,2366,260C2331.4,260,2297,260,2263,260C2228.6,260,2194,260,2160,260C2125.7,260,2091,260,2057,260C2022.9,260,1989,260,1954,260C1920,260,1886,260,1851,260C1817.1,260,1783,260,1749,260C1714.3,260,1680,260,1646,260C1611.4,260,1577,260,1543,260C1508.6,260,1474,260,1440,260C1405.7,260,1371,260,1337,260C1302.9,260,1269,260,1234,260C1200,260,1166,260,1131,260C1097.1,260,1063,260,1029,260C994.3,260,960,260,926,260C891.4,260,857,260,823,260C788.6,260,754,260,720,260C685.7,260,651,260,617,260C582.9,260,549,260,514,260C480,260,446,260,411,260C377.1,260,343,260,309,260C274.3,260,240,260,206,260C171.4,260,137,260,103,260C68.6,260,34,260,17,260L0,260Z"/><defs><linearGradient id="sw-gradient-1" x1="0" x2="0" y1="1" y2="0"><stop stop-color="rgba(45, 95, 137, 1)" offset="0%"/><stop stop-color="rgba(45, 95, 137, 1)" offset="100%"/></linearGradient></defs><path style="transform:translate(0, 50px); opacity:0.9" fill="url(#sw-gradient-1)" d="M0,130L17.1,138.7C34.3,147,69,165,103,169C137.1,173,171,165,206,160.3C240,156,274,156,309,143C342.9,130,377,104,411,82.3C445.7,61,480,43,514,60.7C548.6,78,583,130,617,147.3C651.4,165,686,147,720,151.7C754.3,156,789,182,823,195C857.1,208,891,208,926,177.7C960,147,994,87,1029,86.7C1062.9,87,1097,147,1131,160.3C1165.7,173,1200,139,1234,134.3C1268.6,130,1303,156,1337,151.7C1371.4,147,1406,113,1440,95.3C1474.3,78,1509,78,1543,104C1577.1,130,1611,182,1646,208C1680,234,1714,234,1749,221C1782.9,208,1817,182,1851,173.3C1885.7,165,1920,173,1954,182C1988.6,191,2023,199,2057,182C2091.4,165,2126,121,2160,91C2194.3,61,2229,43,2263,60.7C2297.1,78,2331,130,2366,160.3C2400,191,2434,199,2451,203.7L2468.6,208L2468.6,260L2451.4,260C2434.3,260,2400,260,2366,260C2331.4,260,2297,260,2263,260C2228.6,260,2194,260,2160,260C2125.7,260,2091,260,2057,260C2022.9,260,1989,260,1954,260C1920,260,1886,260,1851,260C1817.1,260,1783,260,1749,260C1714.3,260,1680,260,1646,260C1611.4,260,1577,260,1543,260C1508.6,260,1474,260,1440,260C1405.7,260,1371,260,1337,260C1302.9,260,1269,260,1234,260C1200,260,1166,260,1131,260C1097.1,260,1063,260,1029,260C994.3,260,960,260,926,260C891.4,260,857,260,823,260C788.6,260,754,260,720,260C685.7,260,651,260,617,260C582.9,260,549,260,514,260C480,260,446,260,411,260C377.1,260,343,260,309,260C274.3,260,240,260,206,260C171.4,260,137,260,103,260C68.6,260,34,260,17,260L0,260Z"/><defs><linearGradient id="sw-gradient-2" x1="0" x2="0" y1="1" y2="0"><stop stop-color="rgba(45, 95, 137, 1)" offset="0%"/><stop stop-color="rgba(45, 95, 137, 1)" offset="100%"/></linearGradient></defs><path style="transform:translate(0, 100px); opacity:0.8" fill="url(#sw-gradient-2)" d="M0,182L17.1,186.3C34.3,191,69,199,103,182C137.1,165,171,121,206,95.3C240,69,274,61,309,73.7C342.9,87,377,121,411,134.3C445.7,147,480,139,514,125.7C548.6,113,583,95,617,73.7C651.4,52,686,26,720,52C754.3,78,789,156,823,177.7C857.1,199,891,165,926,134.3C960,104,994,78,1029,56.3C1062.9,35,1097,17,1131,21.7C1165.7,26,1200,52,1234,82.3C1268.6,113,1303,147,1337,173.3C1371.4,199,1406,217,1440,190.7C1474.3,165,1509,95,1543,82.3C1577.1,69,1611,113,1646,121.3C1680,130,1714,104,1749,108.3C1782.9,113,1817,147,1851,164.7C1885.7,182,1920,182,1954,160.3C1988.6,139,2023,95,2057,99.7C2091.4,104,2126,156,2160,173.3C2194.3,191,2229,173,2263,164.7C2297.1,156,2331,156,2366,151.7C2400,147,2434,139,2451,134.3L2468.6,130L2468.6,260L2451.4,260C2434.3,260,2400,260,2366,260C2331.4,260,2297,260,2263,260C2228.6,260,2194,260,2160,260C2125.7,260,2091,260,2057,260C2022.9,260,1989,260,1954,260C1920,260,1886,260,1851,260C1817.1,260,1783,260,1749,260C1714.3,260,1680,260,1646,260C1611.4,260,1577,260,1543,260C1508.6,260,1474,260,1440,260C1405.7,260,1371,260,1337,260C1302.9,260,1269,260,1234,260C1200,260,1166,260,1131,260C1097.1,260,1063,260,1029,260C994.3,260,960,260,926,260C891.4,260,857,260,823,260C788.6,260,754,260,720,260C685.7,260,651,260,617,260C582.9,260,549,260,514,260C480,260,446,260,411,260C377.1,260,343,260,309,260C274.3,260,240,260,206,260C171.4,260,137,260,103,260C68.6,260,34,260,17,260L0,260Z"/><defs><linearGradient id="sw-gradient-3" x1="0" x2="0" y1="1" y2="0"><stop stop-color="rgba(45, 95, 137, 1)" offset="0%"/><stop stop-color="rgba(45, 95, 137, 1)" offset="100%"/></linearGradient></defs><path style="transform:translate(0, 150px); opacity:0.7" fill="url(#sw-gradient-3)" d="M0,234L17.1,216.7C34.3,199,69,165,103,156C137.1,147,171,165,206,151.7C240,139,274,95,309,73.7C342.9,52,377,52,411,73.7C445.7,95,480,139,514,156C548.6,173,583,165,617,164.7C651.4,165,686,173,720,169C754.3,165,789,147,823,130C857.1,113,891,95,926,112.7C960,130,994,182,1029,199.3C1062.9,217,1097,199,1131,195C1165.7,191,1200,199,1234,173.3C1268.6,147,1303,87,1337,91C1371.4,95,1406,165,1440,169C1474.3,173,1509,113,1543,91C1577.1,69,1611,87,1646,108.3C1680,130,1714,156,1749,143C1782.9,130,1817,78,1851,52C1885.7,26,1920,26,1954,30.3C1988.6,35,2023,43,2057,69.3C2091.4,95,2126,139,2160,147.3C2194.3,156,2229,130,2263,99.7C2297.1,69,2331,35,2366,26C2400,17,2434,35,2451,43.3L2468.6,52L2468.6,260L2451.4,260C2434.3,260,2400,260,2366,260C2331.4,260,2297,260,2263,260C2228.6,260,2194,260,2160,260C2125.7,260,2091,260,2057,260C2022.9,260,1989,260,1954,260C1920,260,1886,260,1851,260C1817.1,260,1783,260,1749,260C1714.3,260,1680,260,1646,260C1611.4,260,1577,260,1543,260C1508.6,260,1474,260,1440,260C1405.7,260,1371,260,1337,260C1302.9,260,1269,260,1234,260C1200,260,1166,260,1131,260C1097.1,260,1063,260,1029,260C994.3,260,960,260,926,260C891.4,260,857,260,823,260C788.6,260,754,260,720,260C685.7,260,651,260,617,260C582.9,260,549,260,514,260C480,260,446,260,411,260C377.1,260,343,260,309,260C274.3,260,240,260,206,260C171.4,260,137,260,103,260C68.6,260,34,260,17,260L0,260Z"/></svg>