<?xml version="1.0" standalone="no"?>
<svg xmlns:xlink="http://www.w3.org/1999/xlink" id="wave" style="transform:rotate(180deg); transition: 0.3s" viewBox="0 0 1440 260" version="1.1" xmlns="http://www.w3.org/2000/svg"><defs><linearGradient id="sw-gradient-0" x1="0" x2="0" y1="1" y2="0"><stop stop-color="rgba(185, 94, 32, 1)" offset="0%"/><stop stop-color="rgba(185, 94, 32, 1)" offset="100%"/></linearGradient></defs><path style="transform:translate(0, 0px); opacity:1" fill="url(#sw-gradient-0)" d="M0,52L21.8,69.3C43.6,87,87,121,131,117C174.5,113,218,69,262,65C305.5,61,349,95,393,104C436.4,113,480,95,524,104C567.3,113,611,147,655,173.3C698.2,199,742,217,785,212.3C829.1,208,873,182,916,156C960,130,1004,104,1047,117C1090.9,130,1135,182,1178,173.3C1221.8,165,1265,95,1309,56.3C1352.7,17,1396,9,1440,21.7C1483.6,35,1527,69,1571,95.3C1614.5,121,1658,139,1702,121.3C1745.5,104,1789,52,1833,52C1876.4,52,1920,104,1964,112.7C2007.3,121,2051,87,2095,86.7C2138.2,87,2182,121,2225,117C2269.1,113,2313,69,2356,78C2400,87,2444,147,2487,156C2530.9,165,2575,121,2618,125.7C2661.8,130,2705,182,2749,177.7C2792.7,173,2836,113,2880,104C2923.6,95,2967,139,3011,138.7C3054.5,139,3098,95,3120,73.7L3141.8,52L3141.8,260L3120,260C3098.2,260,3055,260,3011,260C2967.3,260,2924,260,2880,260C2836.4,260,2793,260,2749,260C2705.5,260,2662,260,2618,260C2574.5,260,2531,260,2487,260C2443.6,260,2400,260,2356,260C2312.7,260,2269,260,2225,260C2181.8,260,2138,260,2095,260C2050.9,260,2007,260,1964,260C1920,260,1876,260,1833,260C1789.1,260,1745,260,1702,260C1658.2,260,1615,260,1571,260C1527.3,260,1484,260,1440,260C1396.4,260,1353,260,1309,260C1265.5,260,1222,260,1178,260C1134.5,260,1091,260,1047,260C1003.6,260,960,260,916,260C872.7,260,829,260,785,260C741.8,260,698,260,655,260C610.9,260,567,260,524,260C480,260,436,260,393,260C349.1,260,305,260,262,260C218.2,260,175,260,131,260C87.3,260,44,260,22,260L0,260Z"/><defs><linearGradient id="sw-gradient-1" x1="0" x2="0" y1="1" y2="0"><stop stop-color="rgba(185, 94, 32, 1)" offset="0%"/><stop stop-color="rgba(185, 94, 32, 1)" offset="100%"/></linearGradient></defs><path style="transform:translate(0, 50px); opacity:0.9" fill="url(#sw-gradient-1)" d="M0,130L21.8,138.7C43.6,147,87,165,131,169C174.5,173,218,165,262,160.3C305.5,156,349,156,393,143C436.4,130,480,104,524,82.3C567.3,61,611,43,655,60.7C698.2,78,742,130,785,147.3C829.1,165,873,147,916,151.7C960,156,1004,182,1047,195C1090.9,208,1135,208,1178,177.7C1221.8,147,1265,87,1309,86.7C1352.7,87,1396,147,1440,160.3C1483.6,173,1527,139,1571,134.3C1614.5,130,1658,156,1702,151.7C1745.5,147,1789,113,1833,95.3C1876.4,78,1920,78,1964,104C2007.3,130,2051,182,2095,208C2138.2,234,2182,234,2225,221C2269.1,208,2313,182,2356,173.3C2400,165,2444,173,2487,182C2530.9,191,2575,199,2618,182C2661.8,165,2705,121,2749,91C2792.7,61,2836,43,2880,60.7C2923.6,78,2967,130,3011,160.3C3054.5,191,3098,199,3120,203.7L3141.8,208L3141.8,260L3120,260C3098.2,260,3055,260,3011,260C2967.3,260,2924,260,2880,260C2836.4,260,2793,260,2749,260C2705.5,260,2662,260,2618,260C2574.5,260,2531,260,2487,260C2443.6,260,2400,260,2356,260C2312.7,260,2269,260,2225,260C2181.8,260,2138,260,2095,260C2050.9,260,2007,260,1964,260C1920,260,1876,260,1833,260C1789.1,260,1745,260,1702,260C1658.2,260,1615,260,1571,260C1527.3,260,1484,260,1440,260C1396.4,260,1353,260,1309,260C1265.5,260,1222,260,1178,260C1134.5,260,1091,260,1047,260C1003.6,260,960,260,916,260C872.7,260,829,260,785,260C741.8,260,698,260,655,260C610.9,260,567,260,524,260C480,260,436,260,393,260C349.1,260,305,260,262,260C218.2,260,175,260,131,260C87.3,260,44,260,22,260L0,260Z"/><defs><linearGradient id="sw-gradient-2" x1="0" x2="0" y1="1" y2="0"><stop stop-color="rgba(185, 94, 32, 1)" offset="0%"/><stop stop-color="rgba(185, 94, 32, 1)" offset="100%"/></linearGradient></defs><path style="transform:translate(0, 100px); opacity:0.8" fill="url(#sw-gradient-2)" d="M0,182L21.8,186.3C43.6,191,87,199,131,182C174.5,165,218,121,262,95.3C305.5,69,349,61,393,73.7C436.4,87,480,121,524,134.3C567.3,147,611,139,655,125.7C698.2,113,742,95,785,73.7C829.1,52,873,26,916,52C960,78,1004,156,1047,177.7C1090.9,199,1135,165,1178,134.3C1221.8,104,1265,78,1309,56.3C1352.7,35,1396,17,1440,21.7C1483.6,26,1527,52,1571,82.3C1614.5,113,1658,147,1702,173.3C1745.5,199,1789,217,1833,190.7C1876.4,165,1920,95,1964,82.3C2007.3,69,2051,113,2095,121.3C2138.2,130,2182,104,2225,108.3C2269.1,113,2313,147,2356,164.7C2400,182,2444,182,2487,160.3C2530.9,139,2575,95,2618,99.7C2661.8,104,2705,156,2749,173.3C2792.7,191,2836,173,2880,164.7C2923.6,156,2967,156,3011,151.7C3054.5,147,3098,139,3120,134.3L3141.8,130L3141.8,260L3120,260C3098.2,260,3055,260,3011,260C2967.3,260,2924,260,2880,260C2836.4,260,2793,260,2749,260C2705.5,260,2662,260,2618,260C2574.5,260,2531,260,2487,260C2443.6,260,2400,260,2356,260C2312.7,260,2269,260,2225,260C2181.8,260,2138,260,2095,260C2050.9,260,2007,260,1964,260C1920,260,1876,260,1833,260C1789.1,260,1745,260,1702,260C1658.2,260,1615,260,1571,260C1527.3,260,1484,260,1440,260C1396.4,260,1353,260,1309,260C1265.5,260,1222,260,1178,260C1134.5,260,1091,260,1047,260C1003.6,260,960,260,916,260C872.7,260,829,260,785,260C741.8,260,698,260,655,260C610.9,260,567,260,524,260C480,260,436,260,393,260C349.1,260,305,260,262,260C218.2,260,175,260,131,260C87.3,260,44,260,22,260L0,260Z"/><defs><linearGradient id="sw-gradient-3" x1="0" x2="0" y1="1" y2="0"><stop stop-color="rgba(185, 94, 32, 1)" offset="0%"/><stop stop-color="rgba(185, 94, 32, 1)" offset="100%"/></linearGradient></defs><path style="transform:translate(0, 150px); opacity:0.7" fill="url(#sw-gradient-3)" d="M0,234L21.8,216.7C43.6,199,87,165,131,156C174.5,147,218,165,262,151.7C305.5,139,349,95,393,73.7C436.4,52,480,52,524,73.7C567.3,95,611,139,655,156C698.2,173,742,165,785,164.7C829.1,165,873,173,916,169C960,165,1004,147,1047,130C1090.9,113,1135,95,1178,112.7C1221.8,130,1265,182,1309,199.3C1352.7,217,1396,199,1440,195C1483.6,191,1527,199,1571,173.3C1614.5,147,1658,87,1702,91C1745.5,95,1789,165,1833,169C1876.4,173,1920,113,1964,91C2007.3,69,2051,87,2095,108.3C2138.2,130,2182,156,2225,143C2269.1,130,2313,78,2356,52C2400,26,2444,26,2487,30.3C2530.9,35,2575,43,2618,69.3C2661.8,95,2705,139,2749,147.3C2792.7,156,2836,130,2880,99.7C2923.6,69,2967,35,3011,26C3054.5,17,3098,35,3120,43.3L3141.8,52L3141.8,260L3120,260C3098.2,260,3055,260,3011,260C2967.3,260,2924,260,2880,260C2836.4,260,2793,260,2749,260C2705.5,260,2662,260,2618,260C2574.5,260,2531,260,2487,260C2443.6,260,2400,260,2356,260C2312.7,260,2269,260,2225,260C2181.8,260,2138,260,2095,260C2050.9,260,2007,260,1964,260C1920,260,1876,260,1833,260C1789.1,260,1745,260,1702,260C1658.2,260,1615,260,1571,260C1527.3,260,1484,260,1440,260C1396.4,260,1353,260,1309,260C1265.5,260,1222,260,1178,260C1134.5,260,1091,260,1047,260C1003.6,260,960,260,916,260C872.7,260,829,260,785,260C741.8,260,698,260,655,260C610.9,260,567,260,524,260C480,260,436,260,393,260C349.1,260,305,260,262,260C218.2,260,175,260,131,260C87.3,260,44,260,22,260L0,260Z"/></svg>