<?xml version="1.0" standalone="no"?>
<svg xmlns:xlink="http://www.w3.org/1999/xlink" id="wave" style="transform:rotate(180deg); transition: 0.3s" viewBox="0 0 1440 320" version="1.1" xmlns="http://www.w3.org/2000/svg"><defs><linearGradient id="sw-gradient-0" x1="0" x2="0" y1="1" y2="0"><stop stop-color="rgba(255, 99, 71, 1)" offset="0%"/><stop stop-color="rgba(30, 144, 255, 1)" offset="100%"/></linearGradient></defs><path style="transform:translate(0, 0px); opacity:1" fill="url(#sw-gradient-0)" d="M0,288L24,282.7C48,277,96,267,144,250.7C192,235,240,213,288,170.7C336,128,384,64,432,80C480,96,528,192,576,213.3C624,235,672,181,720,138.7C768,96,816,64,864,85.3C912,107,960,181,1008,186.7C1056,192,1104,128,1152,90.7C1200,53,1248,43,1296,48C1344,53,1392,75,1440,69.3C1488,64,1536,32,1584,58.7C1632,85,1680,171,1728,170.7C1776,171,1824,85,1872,58.7C1920,32,1968,64,2016,90.7C2064,117,2112,139,2160,170.7C2208,203,2256,245,2304,240C2352,235,2400,181,2448,154.7C2496,128,2544,128,2592,138.7C2640,149,2688,171,2736,192C2784,213,2832,235,2880,245.3C2928,256,2976,256,3024,245.3C3072,235,3120,213,3168,202.7C3216,192,3264,192,3312,202.7C3360,213,3408,235,3432,245.3L3456,256L3456,320L3432,320C3408,320,3360,320,3312,320C3264,320,3216,320,3168,320C3120,320,3072,320,3024,320C2976,320,2928,320,2880,320C2832,320,2784,320,2736,320C2688,320,2640,320,2592,320C2544,320,2496,320,2448,320C2400,320,2352,320,2304,320C2256,320,2208,320,2160,320C2112,320,2064,320,2016,320C1968,320,1920,320,1872,320C1824,320,1776,320,1728,320C1680,320,1632,320,1584,320C1536,320,1488,320,1440,320C1392,320,1344,320,1296,320C1248,320,1200,320,1152,320C1104,320,1056,320,1008,320C960,320,912,320,864,320C816,320,768,320,720,320C672,320,624,320,576,320C528,320,480,320,432,320C384,320,336,320,288,320C240,320,192,320,144,320C96,320,48,320,24,320L0,320Z"/><defs><linearGradient id="sw-gradient-1" x1="0" x2="0" y1="1" y2="0"><stop stop-color="rgba(255, 99, 71, 1)" offset="0%"/><stop stop-color="rgba(30, 144, 255, 1)" offset="100%"/></linearGradient></defs><path style="transform:translate(0, 50px); opacity:0.9" fill="url(#sw-gradient-1)" d="M0,96L24,122.7C48,149,96,203,144,197.3C192,192,240,128,288,85.3C336,43,384,21,432,53.3C480,85,528,171,576,213.3C624,256,672,256,720,245.3C768,235,816,213,864,213.3C912,213,960,235,1008,224C1056,213,1104,171,1152,133.3C1200,96,1248,64,1296,58.7C1344,53,1392,75,1440,80C1488,85,1536,75,1584,90.7C1632,107,1680,149,1728,165.3C1776,181,1824,171,1872,149.3C1920,128,1968,96,2016,69.3C2064,43,2112,21,2160,26.7C2208,32,2256,64,2304,112C2352,160,2400,224,2448,229.3C2496,235,2544,181,2592,176C2640,171,2688,213,2736,213.3C2784,213,2832,171,2880,154.7C2928,139,2976,149,3024,160C3072,171,3120,181,3168,165.3C3216,149,3264,107,3312,80C3360,53,3408,43,3432,37.3L3456,32L3456,320L3432,320C3408,320,3360,320,3312,320C3264,320,3216,320,3168,320C3120,320,3072,320,3024,320C2976,320,2928,320,2880,320C2832,320,2784,320,2736,320C2688,320,2640,320,2592,320C2544,320,2496,320,2448,320C2400,320,2352,320,2304,320C2256,320,2208,320,2160,320C2112,320,2064,320,2016,320C1968,320,1920,320,1872,320C1824,320,1776,320,1728,320C1680,320,1632,320,1584,320C1536,320,1488,320,1440,320C1392,320,1344,320,1296,320C1248,320,1200,320,1152,320C1104,320,1056,320,1008,320C960,320,912,320,864,320C816,320,768,320,720,320C672,320,624,320,576,320C528,320,480,320,432,320C384,320,336,320,288,320C240,320,192,320,144,320C96,320,48,320,24,320L0,320Z"/><defs><linearGradient id="sw-gradient-2" x1="0" x2="0" y1="1" y2="0"><stop stop-color="rgba(255, 99, 71, 1)" offset="0%"/><stop stop-color="rgba(30, 144, 255, 1)" offset="100%"/></linearGradient></defs><path style="transform:translate(0, 100px); opacity:0.8" fill="url(#sw-gradient-2)" d="M0,0L24,37.3C48,75,96,149,144,181.3C192,213,240,203,288,192C336,181,384,171,432,154.7C480,139,528,117,576,122.7C624,128,672,160,720,144C768,128,816,64,864,69.3C912,75,960,149,1008,192C1056,235,1104,245,1152,256C1200,267,1248,277,1296,240C1344,203,1392,117,1440,80C1488,43,1536,53,1584,96C1632,139,1680,213,1728,224C1776,235,1824,181,1872,170.7C1920,160,1968,192,2016,186.7C2064,181,2112,139,2160,101.3C2208,64,2256,32,2304,42.7C2352,53,2400,107,2448,149.3C2496,192,2544,224,2592,224C2640,224,2688,192,2736,197.3C2784,203,2832,245,2880,218.7C2928,192,2976,96,3024,85.3C3072,75,3120,149,3168,160C3216,171,3264,117,3312,80C3360,43,3408,21,3432,10.7L3456,0L3456,320L3432,320C3408,320,3360,320,3312,320C3264,320,3216,320,3168,320C3120,320,3072,320,3024,320C2976,320,2928,320,2880,320C2832,320,2784,320,2736,320C2688,320,2640,320,2592,320C2544,320,2496,320,2448,320C2400,320,2352,320,2304,320C2256,320,2208,320,2160,320C2112,320,2064,320,2016,320C1968,320,1920,320,1872,320C1824,320,1776,320,1728,320C1680,320,1632,320,1584,320C1536,320,1488,320,1440,320C1392,320,1344,320,1296,320C1248,320,1200,320,1152,320C1104,320,1056,320,1008,320C960,320,912,320,864,320C816,320,768,320,720,320C672,320,624,320,576,320C528,320,480,320,432,320C384,320,336,320,288,320C240,320,192,320,144,320C96,320,48,320,24,320L0,320Z"/><defs><linearGradient id="sw-gradient-3" x1="0" x2="0" y1="1" y2="0"><stop stop-color="rgba(255, 99, 71, 1)" offset="0%"/><stop stop-color="rgba(30, 144, 255, 1)" offset="100%"/></linearGradient></defs><path style="transform:translate(0, 150px); opacity:0.7" fill="url(#sw-gradient-3)" d="M0,128L24,138.7C48,149,96,171,144,149.3C192,128,240,64,288,32C336,0,384,0,432,0C480,0,528,0,576,42.7C624,85,672,171,720,192C768,213,816,171,864,138.7C912,107,960,85,1008,80C1056,75,1104,85,1152,80C1200,75,1248,53,1296,48C1344,43,1392,53,1440,53.3C1488,53,1536,43,1584,48C1632,53,1680,75,1728,85.3C1776,96,1824,96,1872,90.7C1920,85,1968,75,2016,85.3C2064,96,2112,128,2160,122.7C2208,117,2256,75,2304,90.7C2352,107,2400,181,2448,224C2496,267,2544,277,2592,234.7C2640,192,2688,96,2736,69.3C2784,43,2832,85,2880,122.7C2928,160,2976,192,3024,218.7C3072,245,3120,267,3168,277.3C3216,288,3264,288,3312,277.3C3360,267,3408,245,3432,234.7L3456,224L3456,320L3432,320C3408,320,3360,320,3312,320C3264,320,3216,320,3168,320C3120,320,3072,320,3024,320C2976,320,2928,320,2880,320C2832,320,2784,320,2736,320C2688,320,2640,320,2592,320C2544,320,2496,320,2448,320C2400,320,2352,320,2304,320C2256,320,2208,320,2160,320C2112,320,2064,320,2016,320C1968,320,1920,320,1872,320C1824,320,1776,320,1728,320C1680,320,1632,320,1584,320C1536,320,1488,320,1440,320C1392,320,1344,320,1296,320C1248,320,1200,320,1152,320C1104,320,1056,320,1008,320C960,320,912,320,864,320C816,320,768,320,720,320C672,320,624,320,576,320C528,320,480,320,432,320C384,320,336,320,288,320C240,320,192,320,144,320C96,320,48,320,24,320L0,320Z"/></svg>