<?xml version="1.0" standalone="no"?>
<svg xmlns:xlink="http://www.w3.org/1999/xlink" id="wave" style="transform:rotate(180deg); transition: 0.3s" viewBox="0 0 1440 340" version="1.1" xmlns="http://www.w3.org/2000/svg"><defs><linearGradient id="sw-gradient-0" x1="0" x2="0" y1="1" y2="0"><stop stop-color="rgba(142, 62, 243, 1)" offset="0%"/><stop stop-color="rgba(255, 11, 202, 1)" offset="100%"/></linearGradient></defs><path style="transform:translate(0, 0px); opacity:1" fill="url(#sw-gradient-0)" d="M0,238L34.3,215.3C68.6,193,137,147,206,147.3C274.3,147,343,193,411,204C480,215,549,193,617,175.7C685.7,159,754,147,823,170C891.4,193,960,249,1029,249.3C1097.1,249,1166,193,1234,164.3C1302.9,136,1371,136,1440,113.3C1508.6,91,1577,45,1646,22.7C1714.3,0,1783,0,1851,5.7C1920,11,1989,23,2057,68C2125.7,113,2194,193,2263,198.3C2331.4,204,2400,136,2469,124.7C2537.1,113,2606,159,2674,158.7C2742.9,159,2811,113,2880,124.7C2948.6,136,3017,204,3086,209.7C3154.3,215,3223,159,3291,130.3C3360,102,3429,102,3497,130.3C3565.7,159,3634,215,3703,209.7C3771.4,204,3840,136,3909,141.7C3977.1,147,4046,227,4114,266.3C4182.9,306,4251,306,4320,277.7C4388.6,249,4457,193,4526,170C4594.3,147,4663,159,4731,136C4800,113,4869,57,4903,28.3L4937.1,0L4937.1,340L4902.9,340C4868.6,340,4800,340,4731,340C4662.9,340,4594,340,4526,340C4457.1,340,4389,340,4320,340C4251.4,340,4183,340,4114,340C4045.7,340,3977,340,3909,340C3840,340,3771,340,3703,340C3634.3,340,3566,340,3497,340C3428.6,340,3360,340,3291,340C3222.9,340,3154,340,3086,340C3017.1,340,2949,340,2880,340C2811.4,340,2743,340,2674,340C2605.7,340,2537,340,2469,340C2400,340,2331,340,2263,340C2194.3,340,2126,340,2057,340C1988.6,340,1920,340,1851,340C1782.9,340,1714,340,1646,340C1577.1,340,1509,340,1440,340C1371.4,340,1303,340,1234,340C1165.7,340,1097,340,1029,340C960,340,891,340,823,340C754.3,340,686,340,617,340C548.6,340,480,340,411,340C342.9,340,274,340,206,340C137.1,340,69,340,34,340L0,340Z"/><defs><linearGradient id="sw-gradient-1" x1="0" x2="0" y1="1" y2="0"><stop stop-color="rgba(142, 62, 243, 1)" offset="0%"/><stop stop-color="rgba(255, 11, 202, 1)" offset="100%"/></linearGradient></defs><path style="transform:translate(0, 50px); opacity:0.9" fill="url(#sw-gradient-1)" d="M0,102L34.3,124.7C68.6,147,137,193,206,226.7C274.3,261,343,283,411,294.7C480,306,549,306,617,294.7C685.7,283,754,261,823,249.3C891.4,238,960,238,1029,209.7C1097.1,181,1166,125,1234,85C1302.9,45,1371,23,1440,62.3C1508.6,102,1577,204,1646,255C1714.3,306,1783,306,1851,294.7C1920,283,1989,261,2057,238C2125.7,215,2194,193,2263,204C2331.4,215,2400,261,2469,283.3C2537.1,306,2606,306,2674,294.7C2742.9,283,2811,261,2880,238C2948.6,215,3017,193,3086,164.3C3154.3,136,3223,102,3291,85C3360,68,3429,68,3497,56.7C3565.7,45,3634,23,3703,56.7C3771.4,91,3840,181,3909,198.3C3977.1,215,4046,159,4114,164.3C4182.9,170,4251,238,4320,226.7C4388.6,215,4457,125,4526,96.3C4594.3,68,4663,102,4731,136C4800,170,4869,204,4903,221L4937.1,238L4937.1,340L4902.9,340C4868.6,340,4800,340,4731,340C4662.9,340,4594,340,4526,340C4457.1,340,4389,340,4320,340C4251.4,340,4183,340,4114,340C4045.7,340,3977,340,3909,340C3840,340,3771,340,3703,340C3634.3,340,3566,340,3497,340C3428.6,340,3360,340,3291,340C3222.9,340,3154,340,3086,340C3017.1,340,2949,340,2880,340C2811.4,340,2743,340,2674,340C2605.7,340,2537,340,2469,340C2400,340,2331,340,2263,340C2194.3,340,2126,340,2057,340C1988.6,340,1920,340,1851,340C1782.9,340,1714,340,1646,340C1577.1,340,1509,340,1440,340C1371.4,340,1303,340,1234,340C1165.7,340,1097,340,1029,340C960,340,891,340,823,340C754.3,340,686,340,617,340C548.6,340,480,340,411,340C342.9,340,274,340,206,340C137.1,340,69,340,34,340L0,340Z"/><defs><linearGradient id="sw-gradient-2" x1="0" x2="0" y1="1" y2="0"><stop stop-color="rgba(142, 62, 243, 1)" offset="0%"/><stop stop-color="rgba(255, 11, 202, 1)" offset="100%"/></linearGradient></defs><path style="transform:translate(0, 100px); opacity:0.8" fill="url(#sw-gradient-2)" d="M0,0L34.3,39.7C68.6,79,137,159,206,192.7C274.3,227,343,215,411,181.3C480,147,549,91,617,102C685.7,113,754,193,823,221C891.4,249,960,227,1029,221C1097.1,215,1166,227,1234,226.7C1302.9,227,1371,215,1440,226.7C1508.6,238,1577,272,1646,283.3C1714.3,295,1783,283,1851,249.3C1920,215,1989,159,2057,130.3C2125.7,102,2194,102,2263,136C2331.4,170,2400,238,2469,260.7C2537.1,283,2606,261,2674,232.3C2742.9,204,2811,170,2880,164.3C2948.6,159,3017,181,3086,192.7C3154.3,204,3223,204,3291,215.3C3360,227,3429,249,3497,215.3C3565.7,181,3634,91,3703,90.7C3771.4,91,3840,181,3909,198.3C3977.1,215,4046,159,4114,158.7C4182.9,159,4251,215,4320,238C4388.6,261,4457,249,4526,209.7C4594.3,170,4663,102,4731,68C4800,34,4869,34,4903,34L4937.1,34L4937.1,340L4902.9,340C4868.6,340,4800,340,4731,340C4662.9,340,4594,340,4526,340C4457.1,340,4389,340,4320,340C4251.4,340,4183,340,4114,340C4045.7,340,3977,340,3909,340C3840,340,3771,340,3703,340C3634.3,340,3566,340,3497,340C3428.6,340,3360,340,3291,340C3222.9,340,3154,340,3086,340C3017.1,340,2949,340,2880,340C2811.4,340,2743,340,2674,340C2605.7,340,2537,340,2469,340C2400,340,2331,340,2263,340C2194.3,340,2126,340,2057,340C1988.6,340,1920,340,1851,340C1782.9,340,1714,340,1646,340C1577.1,340,1509,340,1440,340C1371.4,340,1303,340,1234,340C1165.7,340,1097,340,1029,340C960,340,891,340,823,340C754.3,340,686,340,617,340C548.6,340,480,340,411,340C342.9,340,274,340,206,340C137.1,340,69,340,34,340L0,340Z"/><defs><linearGradient id="sw-gradient-3" x1="0" x2="0" y1="1" y2="0"><stop stop-color="rgba(142, 62, 243, 1)" offset="0%"/><stop stop-color="rgba(255, 11, 202, 1)" offset="100%"/></linearGradient></defs><path style="transform:translate(0, 150px); opacity:0.7" fill="url(#sw-gradient-3)" d="M0,68L34.3,62.3C68.6,57,137,45,206,34C274.3,23,343,11,411,17C480,23,549,45,617,73.7C685.7,102,754,136,823,175.7C891.4,215,960,261,1029,260.7C1097.1,261,1166,215,1234,170C1302.9,125,1371,79,1440,96.3C1508.6,113,1577,193,1646,232.3C1714.3,272,1783,272,1851,238C1920,204,1989,136,2057,124.7C2125.7,113,2194,159,2263,187C2331.4,215,2400,227,2469,209.7C2537.1,193,2606,147,2674,158.7C2742.9,170,2811,238,2880,238C2948.6,238,3017,170,3086,147.3C3154.3,125,3223,147,3291,158.7C3360,170,3429,170,3497,187C3565.7,204,3634,238,3703,255C3771.4,272,3840,272,3909,243.7C3977.1,215,4046,159,4114,119C4182.9,79,4251,57,4320,39.7C4388.6,23,4457,11,4526,39.7C4594.3,68,4663,136,4731,141.7C4800,147,4869,91,4903,62.3L4937.1,34L4937.1,340L4902.9,340C4868.6,340,4800,340,4731,340C4662.9,340,4594,340,4526,340C4457.1,340,4389,340,4320,340C4251.4,340,4183,340,4114,340C4045.7,340,3977,340,3909,340C3840,340,3771,340,3703,340C3634.3,340,3566,340,3497,340C3428.6,340,3360,340,3291,340C3222.9,340,3154,340,3086,340C3017.1,340,2949,340,2880,340C2811.4,340,2743,340,2674,340C2605.7,340,2537,340,2469,340C2400,340,2331,340,2263,340C2194.3,340,2126,340,2057,340C1988.6,340,1920,340,1851,340C1782.9,340,1714,340,1646,340C1577.1,340,1509,340,1440,340C1371.4,340,1303,340,1234,340C1165.7,340,1097,340,1029,340C960,340,891,340,823,340C754.3,340,686,340,617,340C548.6,340,480,340,411,340C342.9,340,274,340,206,340C137.1,340,69,340,34,340L0,340Z"/></svg>