<?xml version="1.0" standalone="no"?>
<svg xmlns:xlink="http://www.w3.org/1999/xlink" id="wave" style="transform:rotate(180deg); transition: 0.3s" viewBox="0 0 1440 260" version="1.1" xmlns="http://www.w3.org/2000/svg"><defs><linearGradient id="sw-gradient-0" x1="0" x2="0" y1="1" y2="0"><stop stop-color="rgba(170, 22, 85, 1)" offset="0%"/><stop stop-color="rgba(170, 22, 85, 1)" offset="100%"/></linearGradient></defs><path style="transform:translate(0, 0px); opacity:1" fill="url(#sw-gradient-0)" d="M0,52L15,69.3C30,87,60,121,90,117C120,113,150,69,180,65C210,61,240,95,270,104C300,113,330,95,360,104C390,113,420,147,450,173.3C480,199,510,217,540,212.3C570,208,600,182,630,156C660,130,690,104,720,117C750,130,780,182,810,173.3C840,165,870,95,900,56.3C930,17,960,9,990,21.7C1020,35,1050,69,1080,95.3C1110,121,1140,139,1170,121.3C1200,104,1230,52,1260,52C1290,52,1320,104,1350,112.7C1380,121,1410,87,1440,86.7C1470,87,1500,121,1530,117C1560,113,1590,69,1620,78C1650,87,1680,147,1710,156C1740,165,1770,121,1800,125.7C1830,130,1860,182,1890,177.7C1920,173,1950,113,1980,104C2010,95,2040,139,2070,138.7C2100,139,2130,95,2145,73.7L2160,52L2160,260L2145,260C2130,260,2100,260,2070,260C2040,260,2010,260,1980,260C1950,260,1920,260,1890,260C1860,260,1830,260,1800,260C1770,260,1740,260,1710,260C1680,260,1650,260,1620,260C1590,260,1560,260,1530,260C1500,260,1470,260,1440,260C1410,260,1380,260,1350,260C1320,260,1290,260,1260,260C1230,260,1200,260,1170,260C1140,260,1110,260,1080,260C1050,260,1020,260,990,260C960,260,930,260,900,260C870,260,840,260,810,260C780,260,750,260,720,260C690,260,660,260,630,260C600,260,570,260,540,260C510,260,480,260,450,260C420,260,390,260,360,260C330,260,300,260,270,260C240,260,210,260,180,260C150,260,120,260,90,260C60,260,30,260,15,260L0,260Z"/><defs><linearGradient id="sw-gradient-1" x1="0" x2="0" y1="1" y2="0"><stop stop-color="rgba(170, 22, 85, 1)" offset="0%"/><stop stop-color="rgba(170, 22, 85, 1)" offset="100%"/></linearGradient></defs><path style="transform:translate(0, 50px); opacity:0.9" fill="url(#sw-gradient-1)" d="M0,130L15,138.7C30,147,60,165,90,169C120,173,150,165,180,160.3C210,156,240,156,270,143C300,130,330,104,360,82.3C390,61,420,43,450,60.7C480,78,510,130,540,147.3C570,165,600,147,630,151.7C660,156,690,182,720,195C750,208,780,208,810,177.7C840,147,870,87,900,86.7C930,87,960,147,990,160.3C1020,173,1050,139,1080,134.3C1110,130,1140,156,1170,151.7C1200,147,1230,113,1260,95.3C1290,78,1320,78,1350,104C1380,130,1410,182,1440,208C1470,234,1500,234,1530,221C1560,208,1590,182,1620,173.3C1650,165,1680,173,1710,182C1740,191,1770,199,1800,182C1830,165,1860,121,1890,91C1920,61,1950,43,1980,60.7C2010,78,2040,130,2070,160.3C2100,191,2130,199,2145,203.7L2160,208L2160,260L2145,260C2130,260,2100,260,2070,260C2040,260,2010,260,1980,260C1950,260,1920,260,1890,260C1860,260,1830,260,1800,260C1770,260,1740,260,1710,260C1680,260,1650,260,1620,260C1590,260,1560,260,1530,260C1500,260,1470,260,1440,260C1410,260,1380,260,1350,260C1320,260,1290,260,1260,260C1230,260,1200,260,1170,260C1140,260,1110,260,1080,260C1050,260,1020,260,990,260C960,260,930,260,900,260C870,260,840,260,810,260C780,260,750,260,720,260C690,260,660,260,630,260C600,260,570,260,540,260C510,260,480,260,450,260C420,260,390,260,360,260C330,260,300,260,270,260C240,260,210,260,180,260C150,260,120,260,90,260C60,260,30,260,15,260L0,260Z"/><defs><linearGradient id="sw-gradient-2" x1="0" x2="0" y1="1" y2="0"><stop stop-color="rgba(170, 22, 85, 1)" offset="0%"/><stop stop-color="rgba(170, 22, 85, 1)" offset="100%"/></linearGradient></defs><path style="transform:translate(0, 100px); opacity:0.8" fill="url(#sw-gradient-2)" d="M0,182L15,186.3C30,191,60,199,90,182C120,165,150,121,180,95.3C210,69,240,61,270,73.7C300,87,330,121,360,134.3C390,147,420,139,450,125.7C480,113,510,95,540,73.7C570,52,600,26,630,52C660,78,690,156,720,177.7C750,199,780,165,810,134.3C840,104,870,78,900,56.3C930,35,960,17,990,21.7C1020,26,1050,52,1080,82.3C1110,113,1140,147,1170,173.3C1200,199,1230,217,1260,190.7C1290,165,1320,95,1350,82.3C1380,69,1410,113,1440,121.3C1470,130,1500,104,1530,108.3C1560,113,1590,147,1620,164.7C1650,182,1680,182,1710,160.3C1740,139,1770,95,1800,99.7C1830,104,1860,156,1890,173.3C1920,191,1950,173,1980,164.7C2010,156,2040,156,2070,151.7C2100,147,2130,139,2145,134.3L2160,130L2160,260L2145,260C2130,260,2100,260,2070,260C2040,260,2010,260,1980,260C1950,260,1920,260,1890,260C1860,260,1830,260,1800,260C1770,260,1740,260,1710,260C1680,260,1650,260,1620,260C1590,260,1560,260,1530,260C1500,260,1470,260,1440,260C1410,260,1380,260,1350,260C1320,260,1290,260,1260,260C1230,260,1200,260,1170,260C1140,260,1110,260,1080,260C1050,260,1020,260,990,260C960,260,930,260,900,260C870,260,840,260,810,260C780,260,750,260,720,260C690,260,660,260,630,260C600,260,570,260,540,260C510,260,480,260,450,260C420,260,390,260,360,260C330,260,300,260,270,260C240,260,210,260,180,260C150,260,120,260,90,260C60,260,30,260,15,260L0,260Z"/><defs><linearGradient id="sw-gradient-3" x1="0" x2="0" y1="1" y2="0"><stop stop-color="rgba(170, 22, 85, 1)" offset="0%"/><stop stop-color="rgba(170, 22, 85, 1)" offset="100%"/></linearGradient></defs><path style="transform:translate(0, 150px); opacity:0.7" fill="url(#sw-gradient-3)" d="M0,234L15,216.7C30,199,60,165,90,156C120,147,150,165,180,151.7C210,139,240,95,270,73.7C300,52,330,52,360,73.7C390,95,420,139,450,156C480,173,510,165,540,164.7C570,165,600,173,630,169C660,165,690,147,720,130C750,113,780,95,810,112.7C840,130,870,182,900,199.3C930,217,960,199,990,195C1020,191,1050,199,1080,173.3C1110,147,1140,87,1170,91C1200,95,1230,165,1260,169C1290,173,1320,113,1350,91C1380,69,1410,87,1440,108.3C1470,130,1500,156,1530,143C1560,130,1590,78,1620,52C1650,26,1680,26,1710,30.3C1740,35,1770,43,1800,69.3C1830,95,1860,139,1890,147.3C1920,156,1950,130,1980,99.7C2010,69,2040,35,2070,26C2100,17,2130,35,2145,43.3L2160,52L2160,260L2145,260C2130,260,2100,260,2070,260C2040,260,2010,260,1980,260C1950,260,1920,260,1890,260C1860,260,1830,260,1800,260C1770,260,1740,260,1710,260C1680,260,1650,260,1620,260C1590,260,1560,260,1530,260C1500,260,1470,260,1440,260C1410,260,1380,260,1350,260C1320,260,1290,260,1260,260C1230,260,1200,260,1170,260C1140,260,1110,260,1080,260C1050,260,1020,260,990,260C960,260,930,260,900,260C870,260,840,260,810,260C780,260,750,260,720,260C690,260,660,260,630,260C600,260,570,260,540,260C510,260,480,260,450,260C420,260,390,260,360,260C330,260,300,260,270,260C240,260,210,260,180,260C150,260,120,260,90,260C60,260,30,260,15,260L0,260Z"/></svg>