<?xml version="1.0" standalone="no"?>
<svg xmlns:xlink="http://www.w3.org/1999/xlink" id="wave" style="transform:rotate(180deg); transition: 0.3s" viewBox="0 0 1440 270" version="1.1" xmlns="http://www.w3.org/2000/svg"><defs><linearGradient id="sw-gradient-0" x1="0" x2="0" y1="1" y2="0"><stop stop-color="rgba(190.656, 62, 243, 1)" offset="0%"/><stop stop-color="rgba(255, 218, 11, 1)" offset="100%"/></linearGradient></defs><path style="transform:translate(0, 0px); opacity:1" fill="url(#sw-gradient-0)" d="M0,189L26.7,175.5C53.3,162,107,135,160,135C213.3,135,267,162,320,144C373.3,126,427,63,480,49.5C533.3,36,587,72,640,103.5C693.3,135,747,162,800,144C853.3,126,907,63,960,58.5C1013.3,54,1067,108,1120,135C1173.3,162,1227,162,1280,157.5C1333.3,153,1387,144,1440,121.5C1493.3,99,1547,63,1600,49.5C1653.3,36,1707,45,1760,45C1813.3,45,1867,36,1920,58.5C1973.3,81,2027,135,2080,166.5C2133.3,198,2187,207,2240,207C2293.3,207,2347,198,2400,171C2453.3,144,2507,99,2560,103.5C2613.3,108,2667,162,2720,193.5C2773.3,225,2827,234,2880,207C2933.3,180,2987,117,3040,112.5C3093.3,108,3147,162,3200,193.5C3253.3,225,3307,234,3360,202.5C3413.3,171,3467,99,3520,67.5C3573.3,36,3627,45,3680,45C3733.3,45,3787,36,3813,31.5L3840,27L3840,270L3813.3,270C3786.7,270,3733,270,3680,270C3626.7,270,3573,270,3520,270C3466.7,270,3413,270,3360,270C3306.7,270,3253,270,3200,270C3146.7,270,3093,270,3040,270C2986.7,270,2933,270,2880,270C2826.7,270,2773,270,2720,270C2666.7,270,2613,270,2560,270C2506.7,270,2453,270,2400,270C2346.7,270,2293,270,2240,270C2186.7,270,2133,270,2080,270C2026.7,270,1973,270,1920,270C1866.7,270,1813,270,1760,270C1706.7,270,1653,270,1600,270C1546.7,270,1493,270,1440,270C1386.7,270,1333,270,1280,270C1226.7,270,1173,270,1120,270C1066.7,270,1013,270,960,270C906.7,270,853,270,800,270C746.7,270,693,270,640,270C586.7,270,533,270,480,270C426.7,270,373,270,320,270C266.7,270,213,270,160,270C106.7,270,53,270,27,270L0,270Z"/><defs><linearGradient id="sw-gradient-1" x1="0" x2="0" y1="1" y2="0"><stop stop-color="rgba(221.315, 62, 243, 1)" offset="0%"/><stop stop-color="rgba(255, 218, 11, 1)" offset="100%"/></linearGradient></defs><path style="transform:translate(0, 50px); opacity:0.9" fill="url(#sw-gradient-1)" d="M0,54L26.7,85.5C53.3,117,107,180,160,207C213.3,234,267,225,320,198C373.3,171,427,126,480,108C533.3,90,587,99,640,121.5C693.3,144,747,180,800,193.5C853.3,207,907,198,960,162C1013.3,126,1067,63,1120,40.5C1173.3,18,1227,36,1280,76.5C1333.3,117,1387,180,1440,207C1493.3,234,1547,225,1600,211.5C1653.3,198,1707,180,1760,175.5C1813.3,171,1867,180,1920,153C1973.3,126,2027,63,2080,72C2133.3,81,2187,162,2240,193.5C2293.3,225,2347,207,2400,180C2453.3,153,2507,117,2560,103.5C2613.3,90,2667,99,2720,90C2773.3,81,2827,54,2880,49.5C2933.3,45,2987,63,3040,63C3093.3,63,3147,45,3200,63C3253.3,81,3307,135,3360,166.5C3413.3,198,3467,207,3520,207C3573.3,207,3627,198,3680,198C3733.3,198,3787,207,3813,211.5L3840,216L3840,270L3813.3,270C3786.7,270,3733,270,3680,270C3626.7,270,3573,270,3520,270C3466.7,270,3413,270,3360,270C3306.7,270,3253,270,3200,270C3146.7,270,3093,270,3040,270C2986.7,270,2933,270,2880,270C2826.7,270,2773,270,2720,270C2666.7,270,2613,270,2560,270C2506.7,270,2453,270,2400,270C2346.7,270,2293,270,2240,270C2186.7,270,2133,270,2080,270C2026.7,270,1973,270,1920,270C1866.7,270,1813,270,1760,270C1706.7,270,1653,270,1600,270C1546.7,270,1493,270,1440,270C1386.7,270,1333,270,1280,270C1226.7,270,1173,270,1120,270C1066.7,270,1013,270,960,270C906.7,270,853,270,800,270C746.7,270,693,270,640,270C586.7,270,533,270,480,270C426.7,270,373,270,320,270C266.7,270,213,270,160,270C106.7,270,53,270,27,270L0,270Z"/><defs><linearGradient id="sw-gradient-2" x1="0" x2="0" y1="1" y2="0"><stop stop-color="rgba(202.92, 62, 243, 1)" offset="0%"/><stop stop-color="rgba(255, 218, 11, 1)" offset="100%"/></linearGradient></defs><path style="transform:translate(0, 100px); opacity:0.8" fill="url(#sw-gradient-2)" d="M0,108L26.7,108C53.3,108,107,108,160,99C213.3,90,267,72,320,63C373.3,54,427,54,480,85.5C533.3,117,587,180,640,207C693.3,234,747,225,800,211.5C853.3,198,907,180,960,166.5C1013.3,153,1067,144,1120,135C1173.3,126,1227,117,1280,126C1333.3,135,1387,162,1440,157.5C1493.3,153,1547,117,1600,94.5C1653.3,72,1707,63,1760,81C1813.3,99,1867,144,1920,139.5C1973.3,135,2027,81,2080,58.5C2133.3,36,2187,45,2240,81C2293.3,117,2347,180,2400,198C2453.3,216,2507,189,2560,157.5C2613.3,126,2667,90,2720,67.5C2773.3,45,2827,36,2880,54C2933.3,72,2987,117,3040,139.5C3093.3,162,3147,162,3200,171C3253.3,180,3307,198,3360,189C3413.3,180,3467,144,3520,130.5C3573.3,117,3627,126,3680,130.5C3733.3,135,3787,135,3813,135L3840,135L3840,270L3813.3,270C3786.7,270,3733,270,3680,270C3626.7,270,3573,270,3520,270C3466.7,270,3413,270,3360,270C3306.7,270,3253,270,3200,270C3146.7,270,3093,270,3040,270C2986.7,270,2933,270,2880,270C2826.7,270,2773,270,2720,270C2666.7,270,2613,270,2560,270C2506.7,270,2453,270,2400,270C2346.7,270,2293,270,2240,270C2186.7,270,2133,270,2080,270C2026.7,270,1973,270,1920,270C1866.7,270,1813,270,1760,270C1706.7,270,1653,270,1600,270C1546.7,270,1493,270,1440,270C1386.7,270,1333,270,1280,270C1226.7,270,1173,270,1120,270C1066.7,270,1013,270,960,270C906.7,270,853,270,800,270C746.7,270,693,270,640,270C586.7,270,533,270,480,270C426.7,270,373,270,320,270C266.7,270,213,270,160,270C106.7,270,53,270,27,270L0,270Z"/><defs><linearGradient id="sw-gradient-3" x1="0" x2="0" y1="1" y2="0"><stop stop-color="rgba(221.315, 62, 243, 1)" offset="0%"/><stop stop-color="rgba(255, 218, 11, 1)" offset="100%"/></linearGradient></defs><path style="transform:translate(0, 150px); opacity:0.7" fill="url(#sw-gradient-3)" d="M0,216L26.7,184.5C53.3,153,107,90,160,90C213.3,90,267,153,320,148.5C373.3,144,427,72,480,63C533.3,54,587,108,640,135C693.3,162,747,162,800,135C853.3,108,907,54,960,31.5C1013.3,9,1067,18,1120,54C1173.3,90,1227,153,1280,166.5C1333.3,180,1387,144,1440,148.5C1493.3,153,1547,198,1600,184.5C1653.3,171,1707,99,1760,67.5C1813.3,36,1867,45,1920,58.5C1973.3,72,2027,90,2080,99C2133.3,108,2187,108,2240,108C2293.3,108,2347,108,2400,126C2453.3,144,2507,180,2560,180C2613.3,180,2667,144,2720,117C2773.3,90,2827,72,2880,81C2933.3,90,2987,126,3040,121.5C3093.3,117,3147,72,3200,58.5C3253.3,45,3307,63,3360,58.5C3413.3,54,3467,27,3520,40.5C3573.3,54,3627,108,3680,135C3733.3,162,3787,162,3813,162L3840,162L3840,270L3813.3,270C3786.7,270,3733,270,3680,270C3626.7,270,3573,270,3520,270C3466.7,270,3413,270,3360,270C3306.7,270,3253,270,3200,270C3146.7,270,3093,270,3040,270C2986.7,270,2933,270,2880,270C2826.7,270,2773,270,2720,270C2666.7,270,2613,270,2560,270C2506.7,270,2453,270,2400,270C2346.7,270,2293,270,2240,270C2186.7,270,2133,270,2080,270C2026.7,270,1973,270,1920,270C1866.7,270,1813,270,1760,270C1706.7,270,1653,270,1600,270C1546.7,270,1493,270,1440,270C1386.7,270,1333,270,1280,270C1226.7,270,1173,270,1120,270C1066.7,270,1013,270,960,270C906.7,270,853,270,800,270C746.7,270,693,270,640,270C586.7,270,533,270,480,270C426.7,270,373,270,320,270C266.7,270,213,270,160,270C106.7,270,53,270,27,270L0,270Z"/></svg>