<?xml version="1.0" standalone="no"?>
<svg xmlns:xlink="http://www.w3.org/1999/xlink" id="wave" style="transform:rotate(180deg); transition: 0.3s" viewBox="0 0 1440 270" version="1.1" xmlns="http://www.w3.org/2000/svg"><defs><linearGradient id="sw-gradient-0" x1="0" x2="0" y1="1" y2="0"><stop stop-color="rgba(243, 106, 62, 1)" offset="0%"/><stop stop-color="rgba(255, 179, 11, 1)" offset="100%"/></linearGradient></defs><path style="transform:translate(0, 0px); opacity:1" fill="url(#sw-gradient-0)" d="M0,162L18.5,175.5C36.9,189,74,216,111,211.5C147.7,207,185,171,222,148.5C258.5,126,295,117,332,103.5C369.2,90,406,72,443,94.5C480,117,517,180,554,180C590.8,180,628,117,665,76.5C701.5,36,738,18,775,36C812.3,54,849,108,886,144C923.1,180,960,198,997,207C1033.8,216,1071,216,1108,216C1144.6,216,1182,216,1218,180C1255.4,144,1292,72,1329,54C1366.2,36,1403,72,1440,76.5C1476.9,81,1514,54,1551,54C1587.7,54,1625,81,1662,103.5C1698.5,126,1735,144,1772,126C1809.2,108,1846,54,1883,36C1920,18,1957,36,1994,72C2030.8,108,2068,162,2105,171C2141.5,180,2178,144,2215,112.5C2252.3,81,2289,54,2326,58.5C2363.1,63,2400,99,2437,130.5C2473.8,162,2511,189,2548,175.5C2584.6,162,2622,108,2640,81L2658.5,54L2658.5,270L2640,270C2621.5,270,2585,270,2548,270C2510.8,270,2474,270,2437,270C2400,270,2363,270,2326,270C2289.2,270,2252,270,2215,270C2178.5,270,2142,270,2105,270C2067.7,270,2031,270,1994,270C1956.9,270,1920,270,1883,270C1846.2,270,1809,270,1772,270C1735.4,270,1698,270,1662,270C1624.6,270,1588,270,1551,270C1513.8,270,1477,270,1440,270C1403.1,270,1366,270,1329,270C1292.3,270,1255,270,1218,270C1181.5,270,1145,270,1108,270C1070.8,270,1034,270,997,270C960,270,923,270,886,270C849.2,270,812,270,775,270C738.5,270,702,270,665,270C627.7,270,591,270,554,270C516.9,270,480,270,443,270C406.2,270,369,270,332,270C295.4,270,258,270,222,270C184.6,270,148,270,111,270C73.8,270,37,270,18,270L0,270Z"/><defs><linearGradient id="sw-gradient-1" x1="0" x2="0" y1="1" y2="0"><stop stop-color="rgba(243, 106, 62, 1)" offset="0%"/><stop stop-color="rgba(255, 179, 11, 1)" offset="100%"/></linearGradient></defs><path style="transform:translate(0, 50px); opacity:0.9" fill="url(#sw-gradient-1)" d="M0,0L18.5,31.5C36.9,63,74,126,111,139.5C147.7,153,185,117,222,121.5C258.5,126,295,171,332,193.5C369.2,216,406,216,443,189C480,162,517,108,554,72C590.8,36,628,18,665,13.5C701.5,9,738,18,775,31.5C812.3,45,849,63,886,72C923.1,81,960,81,997,85.5C1033.8,90,1071,99,1108,85.5C1144.6,72,1182,36,1218,58.5C1255.4,81,1292,162,1329,175.5C1366.2,189,1403,135,1440,99C1476.9,63,1514,45,1551,49.5C1587.7,54,1625,81,1662,108C1698.5,135,1735,162,1772,148.5C1809.2,135,1846,81,1883,72C1920,63,1957,99,1994,103.5C2030.8,108,2068,81,2105,58.5C2141.5,36,2178,18,2215,31.5C2252.3,45,2289,90,2326,90C2363.1,90,2400,45,2437,54C2473.8,63,2511,126,2548,153C2584.6,180,2622,171,2640,166.5L2658.5,162L2658.5,270L2640,270C2621.5,270,2585,270,2548,270C2510.8,270,2474,270,2437,270C2400,270,2363,270,2326,270C2289.2,270,2252,270,2215,270C2178.5,270,2142,270,2105,270C2067.7,270,2031,270,1994,270C1956.9,270,1920,270,1883,270C1846.2,270,1809,270,1772,270C1735.4,270,1698,270,1662,270C1624.6,270,1588,270,1551,270C1513.8,270,1477,270,1440,270C1403.1,270,1366,270,1329,270C1292.3,270,1255,270,1218,270C1181.5,270,1145,270,1108,270C1070.8,270,1034,270,997,270C960,270,923,270,886,270C849.2,270,812,270,775,270C738.5,270,702,270,665,270C627.7,270,591,270,554,270C516.9,270,480,270,443,270C406.2,270,369,270,332,270C295.4,270,258,270,222,270C184.6,270,148,270,111,270C73.8,270,37,270,18,270L0,270Z"/><defs><linearGradient id="sw-gradient-2" x1="0" x2="0" y1="1" y2="0"><stop stop-color="rgba(243, 106, 62, 1)" offset="0%"/><stop stop-color="rgba(255, 179, 11, 1)" offset="100%"/></linearGradient></defs><path style="transform:translate(0, 100px); opacity:0.8" fill="url(#sw-gradient-2)" d="M0,81L18.5,72C36.9,63,74,45,111,63C147.7,81,185,135,222,135C258.5,135,295,81,332,72C369.2,63,406,99,443,112.5C480,126,517,117,554,99C590.8,81,628,54,665,40.5C701.5,27,738,27,775,40.5C812.3,54,849,81,886,81C923.1,81,960,54,997,67.5C1033.8,81,1071,135,1108,162C1144.6,189,1182,189,1218,166.5C1255.4,144,1292,99,1329,76.5C1366.2,54,1403,54,1440,49.5C1476.9,45,1514,36,1551,45C1587.7,54,1625,81,1662,90C1698.5,99,1735,90,1772,112.5C1809.2,135,1846,189,1883,193.5C1920,198,1957,153,1994,135C2030.8,117,2068,126,2105,112.5C2141.5,99,2178,63,2215,63C2252.3,63,2289,99,2326,112.5C2363.1,126,2400,117,2437,117C2473.8,117,2511,126,2548,135C2584.6,144,2622,153,2640,157.5L2658.5,162L2658.5,270L2640,270C2621.5,270,2585,270,2548,270C2510.8,270,2474,270,2437,270C2400,270,2363,270,2326,270C2289.2,270,2252,270,2215,270C2178.5,270,2142,270,2105,270C2067.7,270,2031,270,1994,270C1956.9,270,1920,270,1883,270C1846.2,270,1809,270,1772,270C1735.4,270,1698,270,1662,270C1624.6,270,1588,270,1551,270C1513.8,270,1477,270,1440,270C1403.1,270,1366,270,1329,270C1292.3,270,1255,270,1218,270C1181.5,270,1145,270,1108,270C1070.8,270,1034,270,997,270C960,270,923,270,886,270C849.2,270,812,270,775,270C738.5,270,702,270,665,270C627.7,270,591,270,554,270C516.9,270,480,270,443,270C406.2,270,369,270,332,270C295.4,270,258,270,222,270C184.6,270,148,270,111,270C73.8,270,37,270,18,270L0,270Z"/><defs><linearGradient id="sw-gradient-3" x1="0" x2="0" y1="1" y2="0"><stop stop-color="rgba(243, 106, 62, 1)" offset="0%"/><stop stop-color="rgba(255, 179, 11, 1)" offset="100%"/></linearGradient></defs><path style="transform:translate(0, 150px); opacity:0.7" fill="url(#sw-gradient-3)" d="M0,189L18.5,166.5C36.9,144,74,99,111,67.5C147.7,36,185,18,222,22.5C258.5,27,295,54,332,81C369.2,108,406,135,443,130.5C480,126,517,90,554,85.5C590.8,81,628,108,665,139.5C701.5,171,738,207,775,198C812.3,189,849,135,886,135C923.1,135,960,189,997,198C1033.8,207,1071,171,1108,148.5C1144.6,126,1182,117,1218,103.5C1255.4,90,1292,72,1329,63C1366.2,54,1403,54,1440,85.5C1476.9,117,1514,180,1551,198C1587.7,216,1625,189,1662,171C1698.5,153,1735,144,1772,157.5C1809.2,171,1846,207,1883,220.5C1920,234,1957,225,1994,220.5C2030.8,216,2068,216,2105,211.5C2141.5,207,2178,198,2215,175.5C2252.3,153,2289,117,2326,117C2363.1,117,2400,153,2437,171C2473.8,189,2511,189,2548,193.5C2584.6,198,2622,207,2640,211.5L2658.5,216L2658.5,270L2640,270C2621.5,270,2585,270,2548,270C2510.8,270,2474,270,2437,270C2400,270,2363,270,2326,270C2289.2,270,2252,270,2215,270C2178.5,270,2142,270,2105,270C2067.7,270,2031,270,1994,270C1956.9,270,1920,270,1883,270C1846.2,270,1809,270,1772,270C1735.4,270,1698,270,1662,270C1624.6,270,1588,270,1551,270C1513.8,270,1477,270,1440,270C1403.1,270,1366,270,1329,270C1292.3,270,1255,270,1218,270C1181.5,270,1145,270,1108,270C1070.8,270,1034,270,997,270C960,270,923,270,886,270C849.2,270,812,270,775,270C738.5,270,702,270,665,270C627.7,270,591,270,554,270C516.9,270,480,270,443,270C406.2,270,369,270,332,270C295.4,270,258,270,222,270C184.6,270,148,270,111,270C73.8,270,37,270,18,270L0,270Z"/></svg>