<?xml version="1.0" standalone="no"?>
<svg xmlns:xlink="http://www.w3.org/1999/xlink" id="wave" style="transform:rotate(180deg); transition: 0.3s" viewBox="0 0 1440 250" version="1.1" xmlns="http://www.w3.org/2000/svg"><defs><linearGradient id="sw-gradient-0" x1="0" x2="0" y1="1" y2="0"><stop stop-color="rgba(133, 205, 225, 1)" offset="0%"/><stop stop-color="rgba(133, 205, 225, 1)" offset="100%"/></linearGradient></defs><path style="transform:translate(0, 0px); opacity:1" fill="url(#sw-gradient-0)" d="M0,50L18.5,66.7C36.9,83,74,117,111,112.5C147.7,108,185,67,222,62.5C258.5,58,295,92,332,100C369.2,108,406,92,443,100C480,108,517,142,554,166.7C590.8,192,628,208,665,204.2C701.5,200,738,175,775,150C812.3,125,849,100,886,112.5C923.1,125,960,175,997,166.7C1033.8,158,1071,92,1108,54.2C1144.6,17,1182,8,1218,20.8C1255.4,33,1292,67,1329,91.7C1366.2,117,1403,133,1440,116.7C1476.9,100,1514,50,1551,50C1587.7,50,1625,100,1662,108.3C1698.5,117,1735,83,1772,83.3C1809.2,83,1846,117,1883,112.5C1920,108,1957,67,1994,75C2030.8,83,2068,142,2105,150C2141.5,158,2178,117,2215,120.8C2252.3,125,2289,175,2326,170.8C2363.1,167,2400,108,2437,100C2473.8,92,2511,133,2548,133.3C2584.6,133,2622,92,2640,70.8L2658.5,50L2658.5,250L2640,250C2621.5,250,2585,250,2548,250C2510.8,250,2474,250,2437,250C2400,250,2363,250,2326,250C2289.2,250,2252,250,2215,250C2178.5,250,2142,250,2105,250C2067.7,250,2031,250,1994,250C1956.9,250,1920,250,1883,250C1846.2,250,1809,250,1772,250C1735.4,250,1698,250,1662,250C1624.6,250,1588,250,1551,250C1513.8,250,1477,250,1440,250C1403.1,250,1366,250,1329,250C1292.3,250,1255,250,1218,250C1181.5,250,1145,250,1108,250C1070.8,250,1034,250,997,250C960,250,923,250,886,250C849.2,250,812,250,775,250C738.5,250,702,250,665,250C627.7,250,591,250,554,250C516.9,250,480,250,443,250C406.2,250,369,250,332,250C295.4,250,258,250,222,250C184.6,250,148,250,111,250C73.8,250,37,250,18,250L0,250Z"/><defs><linearGradient id="sw-gradient-1" x1="0" x2="0" y1="1" y2="0"><stop stop-color="rgba(133, 205, 225, 1)" offset="0%"/><stop stop-color="rgba(133, 205, 225, 1)" offset="100%"/></linearGradient></defs><path style="transform:translate(0, 50px); opacity:0.9" fill="url(#sw-gradient-1)" d="M0,125L18.5,133.3C36.9,142,74,158,111,162.5C147.7,167,185,158,222,154.2C258.5,150,295,150,332,137.5C369.2,125,406,100,443,79.2C480,58,517,42,554,58.3C590.8,75,628,125,665,141.7C701.5,158,738,142,775,145.8C812.3,150,849,175,886,187.5C923.1,200,960,200,997,170.8C1033.8,142,1071,83,1108,83.3C1144.6,83,1182,142,1218,154.2C1255.4,167,1292,133,1329,129.2C1366.2,125,1403,150,1440,145.8C1476.9,142,1514,108,1551,91.7C1587.7,75,1625,75,1662,100C1698.5,125,1735,175,1772,200C1809.2,225,1846,225,1883,212.5C1920,200,1957,175,1994,166.7C2030.8,158,2068,167,2105,175C2141.5,183,2178,192,2215,175C2252.3,158,2289,117,2326,87.5C2363.1,58,2400,42,2437,58.3C2473.8,75,2511,125,2548,154.2C2584.6,183,2622,192,2640,195.8L2658.5,200L2658.5,250L2640,250C2621.5,250,2585,250,2548,250C2510.8,250,2474,250,2437,250C2400,250,2363,250,2326,250C2289.2,250,2252,250,2215,250C2178.5,250,2142,250,2105,250C2067.7,250,2031,250,1994,250C1956.9,250,1920,250,1883,250C1846.2,250,1809,250,1772,250C1735.4,250,1698,250,1662,250C1624.6,250,1588,250,1551,250C1513.8,250,1477,250,1440,250C1403.1,250,1366,250,1329,250C1292.3,250,1255,250,1218,250C1181.5,250,1145,250,1108,250C1070.8,250,1034,250,997,250C960,250,923,250,886,250C849.2,250,812,250,775,250C738.5,250,702,250,665,250C627.7,250,591,250,554,250C516.9,250,480,250,443,250C406.2,250,369,250,332,250C295.4,250,258,250,222,250C184.6,250,148,250,111,250C73.8,250,37,250,18,250L0,250Z"/><defs><linearGradient id="sw-gradient-2" x1="0" x2="0" y1="1" y2="0"><stop stop-color="rgba(133, 205, 225, 1)" offset="0%"/><stop stop-color="rgba(133, 205, 225, 1)" offset="100%"/></linearGradient></defs><path style="transform:translate(0, 100px); opacity:0.8" fill="url(#sw-gradient-2)" d="M0,175L18.5,179.2C36.9,183,74,192,111,175C147.7,158,185,117,222,91.7C258.5,67,295,58,332,70.8C369.2,83,406,117,443,129.2C480,142,517,133,554,120.8C590.8,108,628,92,665,70.8C701.5,50,738,25,775,50C812.3,75,849,150,886,170.8C923.1,192,960,158,997,129.2C1033.8,100,1071,75,1108,54.2C1144.6,33,1182,17,1218,20.8C1255.4,25,1292,50,1329,79.2C1366.2,108,1403,142,1440,166.7C1476.9,192,1514,208,1551,183.3C1587.7,158,1625,92,1662,79.2C1698.5,67,1735,108,1772,116.7C1809.2,125,1846,100,1883,104.2C1920,108,1957,142,1994,158.3C2030.8,175,2068,175,2105,154.2C2141.5,133,2178,92,2215,95.8C2252.3,100,2289,150,2326,166.7C2363.1,183,2400,167,2437,158.3C2473.8,150,2511,150,2548,145.8C2584.6,142,2622,133,2640,129.2L2658.5,125L2658.5,250L2640,250C2621.5,250,2585,250,2548,250C2510.8,250,2474,250,2437,250C2400,250,2363,250,2326,250C2289.2,250,2252,250,2215,250C2178.5,250,2142,250,2105,250C2067.7,250,2031,250,1994,250C1956.9,250,1920,250,1883,250C1846.2,250,1809,250,1772,250C1735.4,250,1698,250,1662,250C1624.6,250,1588,250,1551,250C1513.8,250,1477,250,1440,250C1403.1,250,1366,250,1329,250C1292.3,250,1255,250,1218,250C1181.5,250,1145,250,1108,250C1070.8,250,1034,250,997,250C960,250,923,250,886,250C849.2,250,812,250,775,250C738.5,250,702,250,665,250C627.7,250,591,250,554,250C516.9,250,480,250,443,250C406.2,250,369,250,332,250C295.4,250,258,250,222,250C184.6,250,148,250,111,250C73.8,250,37,250,18,250L0,250Z"/><defs><linearGradient id="sw-gradient-3" x1="0" x2="0" y1="1" y2="0"><stop stop-color="rgba(133, 205, 225, 1)" offset="0%"/><stop stop-color="rgba(133, 205, 225, 1)" offset="100%"/></linearGradient></defs><path style="transform:translate(0, 150px); opacity:0.7" fill="url(#sw-gradient-3)" d="M0,225L18.5,208.3C36.9,192,74,158,111,150C147.7,142,185,158,222,145.8C258.5,133,295,92,332,70.8C369.2,50,406,50,443,70.8C480,92,517,133,554,150C590.8,167,628,158,665,158.3C701.5,158,738,167,775,162.5C812.3,158,849,142,886,125C923.1,108,960,92,997,108.3C1033.8,125,1071,175,1108,191.7C1144.6,208,1182,192,1218,187.5C1255.4,183,1292,192,1329,166.7C1366.2,142,1403,83,1440,87.5C1476.9,92,1514,158,1551,162.5C1587.7,167,1625,108,1662,87.5C1698.5,67,1735,83,1772,104.2C1809.2,125,1846,150,1883,137.5C1920,125,1957,75,1994,50C2030.8,25,2068,25,2105,29.2C2141.5,33,2178,42,2215,66.7C2252.3,92,2289,133,2326,141.7C2363.1,150,2400,125,2437,95.8C2473.8,67,2511,33,2548,25C2584.6,17,2622,33,2640,41.7L2658.5,50L2658.5,250L2640,250C2621.5,250,2585,250,2548,250C2510.8,250,2474,250,2437,250C2400,250,2363,250,2326,250C2289.2,250,2252,250,2215,250C2178.5,250,2142,250,2105,250C2067.7,250,2031,250,1994,250C1956.9,250,1920,250,1883,250C1846.2,250,1809,250,1772,250C1735.4,250,1698,250,1662,250C1624.6,250,1588,250,1551,250C1513.8,250,1477,250,1440,250C1403.1,250,1366,250,1329,250C1292.3,250,1255,250,1218,250C1181.5,250,1145,250,1108,250C1070.8,250,1034,250,997,250C960,250,923,250,886,250C849.2,250,812,250,775,250C738.5,250,702,250,665,250C627.7,250,591,250,554,250C516.9,250,480,250,443,250C406.2,250,369,250,332,250C295.4,250,258,250,222,250C184.6,250,148,250,111,250C73.8,250,37,250,18,250L0,250Z"/></svg>