<?xml version="1.0" standalone="no"?>
<svg xmlns:xlink="http://www.w3.org/1999/xlink" id="wave" style="transform:rotate(180deg); transition: 0.3s" viewBox="0 0 1440 290" version="1.1" xmlns="http://www.w3.org/2000/svg"><defs><linearGradient id="sw-gradient-0" x1="0" x2="0" y1="1" y2="0"><stop stop-color="rgba(170, 22, 85, 1)" offset="0%"/><stop stop-color="rgba(190, 173, 134, 0.6)" offset="100%"/></linearGradient></defs><path style="transform:translate(0, 0px); opacity:1" fill="url(#sw-gradient-0)" d="M0,58L21.8,91.8C43.6,126,87,193,131,203C174.5,213,218,164,262,130.5C305.5,97,349,77,393,77.3C436.4,77,480,97,524,106.3C567.3,116,611,116,655,125.7C698.2,135,742,155,785,135.3C829.1,116,873,58,916,72.5C960,87,1004,174,1047,203C1090.9,232,1135,203,1178,178.8C1221.8,155,1265,135,1309,140.2C1352.7,145,1396,174,1440,188.5C1483.6,203,1527,203,1571,212.7C1614.5,222,1658,242,1702,232C1745.5,222,1789,184,1833,140.2C1876.4,97,1920,48,1964,24.2C2007.3,0,2051,0,2095,4.8C2138.2,10,2182,19,2225,24.2C2269.1,29,2313,29,2356,62.8C2400,97,2444,164,2487,174C2530.9,184,2575,135,2618,101.5C2661.8,68,2705,48,2749,53.2C2792.7,58,2836,87,2880,87C2923.6,87,2967,58,3011,82.2C3054.5,106,3098,184,3120,222.3L3141.8,261L3141.8,290L3120,290C3098.2,290,3055,290,3011,290C2967.3,290,2924,290,2880,290C2836.4,290,2793,290,2749,290C2705.5,290,2662,290,2618,290C2574.5,290,2531,290,2487,290C2443.6,290,2400,290,2356,290C2312.7,290,2269,290,2225,290C2181.8,290,2138,290,2095,290C2050.9,290,2007,290,1964,290C1920,290,1876,290,1833,290C1789.1,290,1745,290,1702,290C1658.2,290,1615,290,1571,290C1527.3,290,1484,290,1440,290C1396.4,290,1353,290,1309,290C1265.5,290,1222,290,1178,290C1134.5,290,1091,290,1047,290C1003.6,290,960,290,916,290C872.7,290,829,290,785,290C741.8,290,698,290,655,290C610.9,290,567,290,524,290C480,290,436,290,393,290C349.1,290,305,290,262,290C218.2,290,175,290,131,290C87.3,290,44,290,22,290L0,290Z"/><defs><linearGradient id="sw-gradient-1" x1="0" x2="0" y1="1" y2="0"><stop stop-color="rgba(170, 22, 85, 1)" offset="0%"/><stop stop-color="rgba(170, 22, 85, 1)" offset="100%"/></linearGradient></defs><path style="transform:translate(0, 50px); opacity:0.9" fill="url(#sw-gradient-1)" d="M0,0L21.8,14.5C43.6,29,87,58,131,58C174.5,58,218,29,262,38.7C305.5,48,349,97,393,111.2C436.4,126,480,106,524,82.2C567.3,58,611,29,655,38.7C698.2,48,742,97,785,120.8C829.1,145,873,145,916,130.5C960,116,1004,87,1047,77.3C1090.9,68,1135,77,1178,101.5C1221.8,126,1265,164,1309,193.3C1352.7,222,1396,242,1440,207.8C1483.6,174,1527,87,1571,48.3C1614.5,10,1658,19,1702,62.8C1745.5,106,1789,184,1833,188.5C1876.4,193,1920,126,1964,82.2C2007.3,39,2051,19,2095,48.3C2138.2,77,2182,155,2225,159.5C2269.1,164,2313,97,2356,101.5C2400,106,2444,184,2487,188.5C2530.9,193,2575,126,2618,82.2C2661.8,39,2705,19,2749,43.5C2792.7,68,2836,135,2880,169.2C2923.6,203,2967,203,3011,198.2C3054.5,193,3098,184,3120,178.8L3141.8,174L3141.8,290L3120,290C3098.2,290,3055,290,3011,290C2967.3,290,2924,290,2880,290C2836.4,290,2793,290,2749,290C2705.5,290,2662,290,2618,290C2574.5,290,2531,290,2487,290C2443.6,290,2400,290,2356,290C2312.7,290,2269,290,2225,290C2181.8,290,2138,290,2095,290C2050.9,290,2007,290,1964,290C1920,290,1876,290,1833,290C1789.1,290,1745,290,1702,290C1658.2,290,1615,290,1571,290C1527.3,290,1484,290,1440,290C1396.4,290,1353,290,1309,290C1265.5,290,1222,290,1178,290C1134.5,290,1091,290,1047,290C1003.6,290,960,290,916,290C872.7,290,829,290,785,290C741.8,290,698,290,655,290C610.9,290,567,290,524,290C480,290,436,290,393,290C349.1,290,305,290,262,290C218.2,290,175,290,131,290C87.3,290,44,290,22,290L0,290Z"/><defs><linearGradient id="sw-gradient-2" x1="0" x2="0" y1="1" y2="0"><stop stop-color="rgba(170, 22, 85, 1)" offset="0%"/><stop stop-color="rgba(170, 22, 85, 1)" offset="100%"/></linearGradient></defs><path style="transform:translate(0, 100px); opacity:0.8" fill="url(#sw-gradient-2)" d="M0,116L21.8,96.7C43.6,77,87,39,131,43.5C174.5,48,218,97,262,130.5C305.5,164,349,184,393,164.3C436.4,145,480,87,524,82.2C567.3,77,611,126,655,164.3C698.2,203,742,232,785,236.8C829.1,242,873,222,916,212.7C960,203,1004,203,1047,188.5C1090.9,174,1135,145,1178,135.3C1221.8,126,1265,135,1309,154.7C1352.7,174,1396,203,1440,183.7C1483.6,164,1527,97,1571,62.8C1614.5,29,1658,29,1702,29C1745.5,29,1789,29,1833,38.7C1876.4,48,1920,68,1964,101.5C2007.3,135,2051,184,2095,183.7C2138.2,184,2182,135,2225,111.2C2269.1,87,2313,87,2356,87C2400,87,2444,87,2487,72.5C2530.9,58,2575,29,2618,58C2661.8,87,2705,174,2749,203C2792.7,232,2836,203,2880,174C2923.6,145,2967,116,3011,91.8C3054.5,68,3098,48,3120,38.7L3141.8,29L3141.8,290L3120,290C3098.2,290,3055,290,3011,290C2967.3,290,2924,290,2880,290C2836.4,290,2793,290,2749,290C2705.5,290,2662,290,2618,290C2574.5,290,2531,290,2487,290C2443.6,290,2400,290,2356,290C2312.7,290,2269,290,2225,290C2181.8,290,2138,290,2095,290C2050.9,290,2007,290,1964,290C1920,290,1876,290,1833,290C1789.1,290,1745,290,1702,290C1658.2,290,1615,290,1571,290C1527.3,290,1484,290,1440,290C1396.4,290,1353,290,1309,290C1265.5,290,1222,290,1178,290C1134.5,290,1091,290,1047,290C1003.6,290,960,290,916,290C872.7,290,829,290,785,290C741.8,290,698,290,655,290C610.9,290,567,290,524,290C480,290,436,290,393,290C349.1,290,305,290,262,290C218.2,290,175,290,131,290C87.3,290,44,290,22,290L0,290Z"/><defs><linearGradient id="sw-gradient-3" x1="0" x2="0" y1="1" y2="0"><stop stop-color="rgba(170, 22, 85, 1)" offset="0%"/><stop stop-color="rgba(170, 22, 85, 1)" offset="100%"/></linearGradient></defs><path style="transform:translate(0, 150px); opacity:0.7" fill="url(#sw-gradient-3)" d="M0,232L21.8,222.3C43.6,213,87,193,131,193.3C174.5,193,218,213,262,183.7C305.5,155,349,77,393,58C436.4,39,480,77,524,111.2C567.3,145,611,174,655,178.8C698.2,184,742,164,785,169.2C829.1,174,873,203,916,178.8C960,155,1004,77,1047,77.3C1090.9,77,1135,155,1178,154.7C1221.8,155,1265,77,1309,77.3C1352.7,77,1396,155,1440,178.8C1483.6,203,1527,174,1571,145C1614.5,116,1658,87,1702,82.2C1745.5,77,1789,97,1833,101.5C1876.4,106,1920,97,1964,96.7C2007.3,97,2051,106,2095,106.3C2138.2,106,2182,97,2225,101.5C2269.1,106,2313,126,2356,120.8C2400,116,2444,87,2487,106.3C2530.9,126,2575,193,2618,183.7C2661.8,174,2705,87,2749,67.7C2792.7,48,2836,97,2880,111.2C2923.6,126,2967,106,3011,101.5C3054.5,97,3098,106,3120,111.2L3141.8,116L3141.8,290L3120,290C3098.2,290,3055,290,3011,290C2967.3,290,2924,290,2880,290C2836.4,290,2793,290,2749,290C2705.5,290,2662,290,2618,290C2574.5,290,2531,290,2487,290C2443.6,290,2400,290,2356,290C2312.7,290,2269,290,2225,290C2181.8,290,2138,290,2095,290C2050.9,290,2007,290,1964,290C1920,290,1876,290,1833,290C1789.1,290,1745,290,1702,290C1658.2,290,1615,290,1571,290C1527.3,290,1484,290,1440,290C1396.4,290,1353,290,1309,290C1265.5,290,1222,290,1178,290C1134.5,290,1091,290,1047,290C1003.6,290,960,290,916,290C872.7,290,829,290,785,290C741.8,290,698,290,655,290C610.9,290,567,290,524,290C480,290,436,290,393,290C349.1,290,305,290,262,290C218.2,290,175,290,131,290C87.3,290,44,290,22,290L0,290Z"/></svg>